<svg xmlns="http://www.w3.org/2000/svg" width="97.199" height="42" viewBox="0 0 97.199 42">
  <g id="LOGO" transform="translate(-126.2 -14.2)">
    <text id="IDETEKA" transform="translate(157.399 41.345)" fill="#fff" font-size="16" font-family="SegoeUI-Bold, Segoe UI" font-weight="700"><tspan x="0" y="0">IDETEKA</tspan></text>
    <g id="Group_3" data-name="Group 3" transform="translate(126.2 14.2)">
      <g id="Group_1" data-name="Group 1" transform="translate(7.615 5.86)">
        <path id="Union_1" data-name="Union 1" d="M-1064.871-149.184h-7.917l7.917-5.038V-157.8l5.386-5v22.254l-5.386,2.324Zm-15.085-17.261,5.337-2.016v13.1h7.941l-7.941,4.977v3.187l-5.337,4.536Z" transform="translate(1079.956 168.462)" fill="#fff"/>
      </g>
      <path id="Exclusion_1" data-name="Exclusion 1" d="M17.759,42.2h-.005a1.884,1.884,0,0,1-.633-.144L.607,35.039a1.065,1.065,0,0,1-.449-.371A1.477,1.477,0,0,1,0,34.043V8.39a1.148,1.148,0,0,1,.158-.654,1.451,1.451,0,0,1,.6-.416L16.98.357A2.625,2.625,0,0,1,17.74.2h.024a2.049,2.049,0,0,1,.683.134L34.862,7.377a1.131,1.131,0,0,1,.5.4,1.3,1.3,0,0,1,.119.658v5.785H31.962V11.145a1.5,1.5,0,0,0-.1-.7.867.867,0,0,0-.471-.361L18.306,4.468a1.457,1.457,0,0,0-.547-.123H17.74a1.873,1.873,0,0,0-.611.143L4.022,10.112a.956.956,0,0,0-.366.28.975.975,0,0,0-.137.441V31.481a.974.974,0,0,0,.11.544.941.941,0,0,0,.46.3l12.925,5.5a1.8,1.8,0,0,0,.7.169h.024a2.255,2.255,0,0,0,.776-.189l13.445-5.716V29.9h3.519v4.421a.725.725,0,0,1-.119.389,1.124,1.124,0,0,1-.373.282L18.344,42.066A1.533,1.533,0,0,1,17.759,42.2Z" transform="translate(0.002 -0.2)" fill="#fff"/>
    </g>
  </g>
</svg>
